<svg width="24" height="24" viewBox="0 0 24 24" fill="none" xmlns="http://www.w3.org/2000/svg">
<path d="M7.00004 10.5L4.99604 13.172C4.71604 13.5453 4.57537 14.0047 4.59838 14.4708C4.62139 14.9368 4.80663 15.3802 5.12204 15.724L8.90604 19.852C9.28404 20.265 9.81804 20.5 10.379 20.5H15C17.4 20.5 19 19 19 16.5V7.92904C19 5.64304 16 5.64304 16 7.92904V8.50004" stroke="#F2EDED" stroke-width="1.5" stroke-linecap="round" stroke-linejoin="round"/>
<path d="M13 8.5V7.027M13 7.027V6.5M13 7.027C13 4.741 16 4.741 16 7.027V8.5" stroke="#F2EDED" stroke-width="1.5" stroke-linecap="round" stroke-linejoin="round"/>
<path d="M16 8.50002V7.02702C16 4.74102 13 4.74102 13 7.02702V8.50002V6.50002C13 4.21402 10 4.21402 10 6.50002V8.50002V6.38402C10 5.55502 9.328 5.00002 8.5 5.00002C8.10218 5.00002 7.72064 5.15806 7.43934 5.43936C7.15804 5.72067 7 6.1022 7 6.50002V13.5" stroke="#F2EDED" stroke-width="1.5" stroke-linecap="round" stroke-linejoin="round"/>
</svg>
