<svg width="35" height="35" viewBox="0 0 35 35" fill="none" xmlns="http://www.w3.org/2000/svg">
<path d="M7.29163 13.125C7.29163 10.4175 8.36714 7.82101 10.2816 5.90658C12.196 3.99214 14.7925 2.91663 17.5 2.91663C20.2074 2.91663 22.8039 3.99214 24.7183 5.90658C26.6328 7.82101 27.7083 10.4175 27.7083 13.125V21.875C27.7083 23.2155 27.4442 24.543 26.9312 25.7815C26.4182 27.0201 25.6663 28.1454 24.7183 29.0933C23.7704 30.0413 22.6451 30.7932 21.4065 31.3062C20.168 31.8192 18.8405 32.0833 17.5 32.0833C16.1594 32.0833 14.8319 31.8192 13.5934 31.3062C12.3549 30.7932 11.2295 30.0413 10.2816 29.0933C9.33365 28.1454 8.58171 27.0201 8.06869 25.7815C7.55567 24.543 7.29163 23.2155 7.29163 21.875V13.125Z" stroke="#E1E1E1" stroke-width="2.1875"/>
<path d="M15.3125 12.3958C15.3125 11.8156 15.543 11.2592 15.9532 10.849C16.3634 10.4387 16.9198 10.2083 17.5 10.2083C18.0802 10.2083 18.6366 10.4387 19.0468 10.849C19.457 11.2592 19.6875 11.8156 19.6875 12.3958V15.3124C19.6875 15.8926 19.457 16.449 19.0468 16.8592C18.6366 17.2695 18.0802 17.4999 17.5 17.4999C16.9198 17.4999 16.3634 17.2695 15.9532 16.8592C15.543 16.449 15.3125 15.8926 15.3125 15.3124V12.3958Z" stroke="#E1E1E1" stroke-width="2.1875"/>
<path d="M17.5 2.91663V10.2083" stroke="#E1E1E1" stroke-width="2.1875" stroke-linecap="round"/>
</svg>
