<svg width="24" height="24" viewBox="0 0 24 24" fill="none" xmlns="http://www.w3.org/2000/svg">
<path d="M12 0C8.8174 0 5.76516 1.26428 3.51472 3.51472C1.26428 5.76516 0 8.8174 0 12C0 15.1826 1.26428 18.2348 3.51472 20.4853C5.76516 22.7357 8.8174 24 12 24C15.1826 24 18.2348 22.7357 20.4853 20.4853C22.7357 18.2348 24 15.1826 24 12C24 8.8174 22.7357 5.76516 20.4853 3.51472C18.2348 1.26428 15.1826 0 12 0ZM7.638 2.445L11.253 4.554V7.104L7.0995 10.032L4.7595 9.1815L3.8205 5.4135C4.84568 4.14145 6.15259 3.12519 7.638 2.445ZM1.551 13.038L4.2915 10.608L6.6105 11.4495L8.178 16.3845L7.1025 17.994H3.378C2.35425 16.5259 1.72512 14.8193 1.551 13.038ZM9.5595 22.215L8.337 18.846L9.402 17.2515H14.6025L15.669 18.846L14.4465 22.2135C12.8401 22.597 11.1659 22.5985 9.5595 22.215ZM20.622 17.994H16.905L15.825 16.3815L17.3625 11.451L19.713 10.605L22.449 13.038C22.2749 14.8193 21.6457 16.5259 20.622 17.994ZM20.187 5.424L19.248 9.1785L16.872 10.0335L12.7515 7.1055V4.5555L16.365 2.445C17.853 3.12713 19.1616 4.14658 20.187 5.4225V5.424Z" fill="#F2EDED"/>
</svg>
