<svg width="24" height="32" viewBox="0 0 24 32" fill="none" xmlns="http://www.w3.org/2000/svg">
<path d="M21.9999 31.5C21.9999 31.3674 21.9472 31.2402 21.8534 31.1464C21.7597 31.0527 21.6325 31 21.4999 31H3.49988C3.36727 31 3.2401 31.0527 3.14633 31.1464C3.05256 31.2402 2.99988 31.3674 2.99988 31.5C2.99988 31.6326 3.05256 31.7598 3.14633 31.8536C3.2401 31.9473 3.36727 32 3.49988 32H21.4999C21.6325 32 21.7597 31.9473 21.8534 31.8536C21.9472 31.7598 21.9999 31.6326 21.9999 31.5ZM1.27388 9.354C0.855882 9.632 0.221882 10.478 0.822882 11.68C1.32188 12.677 2.36288 13.897 3.46988 14.219C3.73596 14.3024 4.01676 14.328 4.29353 14.2942C4.57031 14.2604 4.83669 14.168 5.07488 14.023C6.17388 13.365 7.47188 12.475 8.02188 12.093C8.71588 12.444 9.59188 12.517 10.4819 12.288L10.4939 12.284C10.4419 13.935 9.88288 14.966 7.14988 17.504C4.71388 19.765 3.26888 22.735 3.28288 25.45C3.29288 27.231 3.94188 28.76 5.16288 29.869C5.25489 29.9533 5.37512 30 5.49988 30H19.4999C19.6325 30 19.7597 29.9473 19.8534 29.8536C19.9472 29.7598 19.9999 29.6326 19.9999 29.5C19.9999 29.3674 19.9472 29.2402 19.8534 29.1464C19.7597 29.0527 19.6325 29 19.4999 29H5.69888C4.77988 28.095 4.29188 26.87 4.28388 25.445C4.27088 23.043 5.63088 20.28 7.83088 18.237C10.7459 15.531 11.4999 14.249 11.4999 12C11.4999 11.959 11.4859 11.923 11.4769 11.885C12.0239 11.59 12.4969 11.2 12.8199 10.728C13.2249 10.138 14.0969 8.623 13.4499 7.282C13.4213 7.2229 13.3813 7.17003 13.3322 7.12639C13.2831 7.08275 13.226 7.0492 13.1639 7.02765C13.1019 7.00611 13.0362 6.99699 12.9707 7.00083C12.9051 7.00466 12.841 7.02137 12.7819 7.05C12.7228 7.07863 12.6699 7.11862 12.6263 7.16768C12.5826 7.21674 12.5491 7.27392 12.5275 7.33595C12.506 7.39798 12.4969 7.46365 12.5007 7.5292C12.5045 7.59475 12.5213 7.6589 12.5499 7.718C12.8409 8.321 12.6339 9.235 11.9959 10.163C11.6279 10.699 10.9699 11.132 10.2349 11.32C9.48788 11.511 8.77788 11.427 8.28288 11.088C8.19868 11.0303 8.09883 10.9998 7.99675 11.0005C7.89468 11.0012 7.79527 11.0331 7.71188 11.092C7.69388 11.104 5.93488 12.343 4.56288 13.166C4.44261 13.24 4.30759 13.2868 4.1673 13.303C4.02702 13.3193 3.88488 13.3046 3.75088 13.26C2.97688 13.034 2.12588 12.048 1.71888 11.234C1.38988 10.576 1.72688 10.262 1.87988 10.15C5.32688 7.173 7.05688 4.08 7.12788 3.949C7.16078 3.88847 7.18095 3.82184 7.18714 3.75322C7.19333 3.6846 7.18542 3.61544 7.16388 3.55C6.94758 2.8825 6.76732 2.20385 6.62388 1.517C7.66988 2.147 9.46888 3.027 11.3419 3.027C13.9459 3.027 19.9999 3.999 19.9999 13.003C19.9999 13.052 19.9909 17.947 18.0299 23.33C18.0067 23.3919 17.9959 23.4578 17.9984 23.5239C18.0008 23.59 18.0163 23.6549 18.0439 23.7149C18.0716 23.775 18.1109 23.829 18.1596 23.8737C18.2083 23.9185 18.2654 23.9531 18.3275 23.9757C18.3897 23.9982 18.4557 24.0082 18.5217 24.0051C18.5878 24.0019 18.6525 23.9857 18.7123 23.9574C18.772 23.9291 18.8256 23.8892 18.8698 23.84C18.914 23.7908 18.948 23.7334 18.9699 23.671C20.9909 18.123 21.0009 13.205 20.9999 13C20.9999 2.817 13.6069 2.026 11.3419 2.026C8.83288 2.026 6.32988 0.123 6.30588 0.103C6.23127 0.0467653 6.14257 0.0122426 6.04957 0.00324279C5.95657 -0.00575698 5.86289 0.0111162 5.77888 0.0519997C5.69522 0.0932224 5.62476 0.157022 5.57546 0.236189C5.52615 0.315357 5.49998 0.406735 5.49988 0.5C5.49988 1.481 5.96488 3.068 6.14588 3.647C5.72788 4.345 4.07988 6.928 1.27388 9.354Z" fill="#F2EDED"/>
<path d="M17.485 1.54C15.884 0.461 14.094 0 11.5 0C11.3674 0 11.2402 0.0526784 11.1464 0.146447C11.0527 0.240215 11 0.367392 11 0.5C11 0.632608 11.0527 0.759785 11.1464 0.853553C11.2402 0.947322 11.3674 1 11.5 1C13.88 1 15.503 1.409 16.927 2.369C19.241 3.931 22 7.043 22 13C22 14.451 22 16.438 21.015 20.379C20.9863 20.5064 21.0086 20.64 21.0772 20.7512C21.1457 20.8623 21.255 20.9423 21.3818 20.9739C21.5085 21.0055 21.6425 20.9863 21.7553 20.9203C21.868 20.8544 21.9505 20.747 21.985 20.621C23 16.562 23 14.503 23 13C23 6.604 20.001 3.237 17.485 1.54Z" fill="#F2EDED"/>
</svg>
