<svg width="24" height="25" viewBox="0 0 24 25" fill="none" xmlns="http://www.w3.org/2000/svg">
<path d="M4.42105 11.3L11.3684 0.5L18.3158 11.3H4.42105ZM18.3158 24.5C16.7368 24.5 15.3945 23.9748 14.2888 22.9244C13.1832 21.874 12.6307 20.5992 12.6316 19.1C12.6316 17.6 13.1844 16.3248 14.2901 15.2744C15.3958 14.224 16.7377 13.6992 18.3158 13.7C19.8947 13.7 21.2371 14.2252 22.3427 15.2756C23.4484 16.326 24.0008 17.6008 24 19.1C24 20.6 23.4472 21.8752 22.3415 22.9256C21.2358 23.976 19.8939 24.5008 18.3158 24.5ZM0 23.9V14.3H10.1053V23.9H0ZM18.3158 22.1C19.2 22.1 19.9474 21.81 20.5579 21.23C21.1684 20.65 21.4737 19.94 21.4737 19.1C21.4737 18.26 21.1684 17.55 20.5579 16.97C19.9474 16.39 19.2 16.1 18.3158 16.1C17.4316 16.1 16.6842 16.39 16.0737 16.97C15.4632 17.55 15.1579 18.26 15.1579 19.1C15.1579 19.94 15.4632 20.65 16.0737 21.23C16.6842 21.81 17.4316 22.1 18.3158 22.1ZM2.52632 21.5H7.57895V16.7H2.52632V21.5ZM8.90526 8.9H13.8316L11.3684 5.12L8.90526 8.9Z" fill="#F2EDED"/>
</svg>
