<svg width="24" height="25" viewBox="0 0 24 25" fill="none" xmlns="http://www.w3.org/2000/svg">
<path d="M4.2969 23.4601C4.1799 24.1704 4.83689 24.7256 5.41588 24.4088L12.0008 20.7995L18.5841 24.4088C19.1631 24.7256 19.8201 24.1704 19.7031 23.4617L18.4581 15.8943L23.741 10.5251C24.236 10.0227 23.981 9.10437 23.3181 9.00518L15.9712 7.89167L12.6952 0.968994C12.6328 0.828667 12.5344 0.710107 12.4113 0.627088C12.2883 0.544069 12.1456 0.5 12 0.5C11.8544 0.5 11.7118 0.544069 11.5887 0.627088C11.4656 0.710107 11.3672 0.828667 11.3048 0.968994L8.02883 7.89327L0.681968 9.00678C0.0204798 9.10598 -0.236016 10.0243 0.257475 10.5267L5.54188 15.8959L4.2969 23.4633V23.4601ZM11.6543 19.0332L6.12537 22.0634L7.16635 15.7327C7.19074 15.5869 7.18119 15.4371 7.13856 15.2962C7.09593 15.1553 7.02152 15.0278 6.92185 14.9247L2.56293 10.4931L8.64082 9.57154C8.76668 9.55127 8.88605 9.49876 8.98872 9.41851C9.09138 9.33827 9.17428 9.23267 9.23031 9.11077L11.9978 3.25842L14.7682 9.11077C14.8242 9.23267 14.9071 9.33827 15.0098 9.41851C15.1125 9.49876 15.2318 9.55127 15.3577 9.57154L21.4356 10.4915L17.0767 14.9231C16.9768 15.0263 16.9022 15.1541 16.8596 15.2953C16.8169 15.4365 16.8075 15.5867 16.8322 15.7327L17.8732 22.0634L12.3443 19.0332C12.2373 18.9744 12.1188 18.9438 11.9985 18.9438C11.8782 18.9438 11.7612 18.9744 11.6543 19.0332Z" fill="#E2DC3A"/>
</svg>
