<svg width="40" height="25" viewBox="0 0 40 25" fill="none" xmlns="http://www.w3.org/2000/svg">
<path d="M36.6992 3.30078C37.7669 4.36849 38.5807 5.57943 39.1406 6.93359C39.7005 8.28776 39.987 9.72656 40 11.25C40 11.7057 39.987 12.2526 39.9609 12.8906C39.9349 13.5286 39.8828 14.2188 39.8047 14.9609C39.7266 15.7031 39.6029 16.4648 39.4336 17.2461C39.2643 18.0273 39.0495 18.8021 38.7891 19.5703C38.3984 20.6901 37.9427 21.6016 37.4219 22.3047C36.901 23.0078 36.3607 23.5612 35.8008 23.9648C35.2409 24.3685 34.6745 24.6419 34.1016 24.7852C33.5286 24.9284 32.9948 25 32.5 25C32.0703 25 31.6797 24.9284 31.3281 24.7852C30.9766 24.6419 30.638 24.4466 30.3125 24.1992C29.987 23.9518 29.6875 23.6849 29.4141 23.3984C29.1406 23.112 28.8607 22.7995 28.5742 22.4609C28.3008 22.1484 28.0339 21.849 27.7734 21.5625C27.513 21.276 27.2331 21.0221 26.9336 20.8008C26.6341 20.5794 26.3346 20.3906 26.0352 20.2344C25.7357 20.0781 25.3841 20 24.9805 20H15.0195C14.6419 20.013 14.2969 20.0911 13.9844 20.2344C13.6719 20.3776 13.3659 20.5599 13.0664 20.7812C12.7669 21.0026 12.4935 21.263 12.2461 21.5625C11.9987 21.862 11.7253 22.1615 11.4258 22.4609C11.1523 22.7734 10.8789 23.0794 10.6055 23.3789C10.332 23.6784 10.0326 23.9518 9.70703 24.1992C9.38151 24.4466 9.04297 24.6354 8.69141 24.7656C8.33984 24.8958 7.94271 24.974 7.5 25C7.00521 25 6.47135 24.9284 5.89844 24.7852C5.32552 24.6419 4.75911 24.375 4.19922 23.9844C3.63932 23.5938 3.09896 23.0404 2.57812 22.3242C2.05729 21.6081 1.60156 20.6901 1.21094 19.5703C0.950521 18.8151 0.742188 18.0469 0.585938 17.2656C0.429688 16.4844 0.30599 15.7161 0.214844 14.9609C0.123698 14.2057 0.0651042 13.5156 0.0390625 12.8906C0.0130208 12.2656 0 11.7188 0 11.25C0 9.73958 0.279948 8.30729 0.839844 6.95312C1.39974 5.59896 2.22005 4.38151 3.30078 3.30078C4.35547 2.23307 5.56641 1.41927 6.93359 0.859375C8.30078 0.299479 9.73958 0.0130208 11.25 0H28.75C30.2604 0 31.6927 0.279948 33.0469 0.839844C34.401 1.39974 35.6185 2.22005 36.6992 3.30078ZM36.4258 18.75C36.6732 18.0599 36.8685 17.3438 37.0117 16.6016C37.1549 15.8594 37.2591 15.1497 37.3242 14.4727C37.3893 13.7956 37.4349 13.1706 37.4609 12.5977C37.487 12.0247 37.5 11.5755 37.5 11.25C37.5 10.0391 37.2721 8.90625 36.8164 7.85156C36.3607 6.79688 35.7357 5.8724 34.9414 5.07812C34.1471 4.28385 33.2227 3.65885 32.168 3.20312C31.1133 2.7474 29.974 2.51302 28.75 2.5H11.25C10.0391 2.5 8.90625 2.72786 7.85156 3.18359C6.79688 3.63932 5.8724 4.26432 5.07812 5.05859C4.28385 5.85286 3.65885 6.77734 3.20312 7.83203C2.7474 8.88672 2.51302 10.026 2.5 11.25C2.5 11.5885 2.50651 12.0378 2.51953 12.5977C2.53255 13.1576 2.57812 13.776 2.65625 14.4531C2.73438 15.1302 2.84505 15.8464 2.98828 16.6016C3.13151 17.3568 3.32682 18.0729 3.57422 18.75C3.89974 19.6875 4.25781 20.4102 4.64844 20.918C5.03906 21.4258 5.41667 21.7969 5.78125 22.0312C6.14583 22.2656 6.48438 22.4023 6.79688 22.4414C7.10938 22.4805 7.34375 22.5 7.5 22.5C7.78646 22.5 8.09896 22.3307 8.4375 21.9922C8.77604 21.6536 9.14062 21.263 9.53125 20.8203C9.84375 20.4557 10.1758 20.0846 10.5273 19.707C10.8789 19.3294 11.276 18.9779 11.7188 18.6523C12.1615 18.3268 12.6497 18.0599 13.1836 17.8516C13.7174 17.6432 14.3099 17.526 14.9609 17.5H25.0391C25.6901 17.526 26.2826 17.6432 26.8164 17.8516C27.3503 18.0599 27.832 18.3203 28.2617 18.6328C28.6914 18.9453 29.0885 19.2969 29.4531 19.6875C29.8177 20.0781 30.1562 20.4557 30.4688 20.8203C30.8464 21.25 31.2044 21.6341 31.543 21.9727C31.8815 22.3112 32.2005 22.487 32.5 22.5C32.6562 22.5 32.8841 22.4805 33.1836 22.4414C33.4831 22.4023 33.8216 22.2656 34.1992 22.0312C34.5768 21.7969 34.9609 21.4258 35.3516 20.918C35.7422 20.4102 36.1003 19.6875 36.4258 18.75ZM10 10H12.5V12.5H10V15H7.5V12.5H5V10H7.5V7.5H10V10ZM32.5 12.5C32.8516 12.5 33.1771 12.5651 33.4766 12.6953C33.776 12.8255 34.0365 13.0013 34.2578 13.2227C34.4792 13.444 34.6615 13.7109 34.8047 14.0234C34.9479 14.3359 35.013 14.6615 35 15C35 15.3516 34.9349 15.6771 34.8047 15.9766C34.6745 16.276 34.4987 16.5365 34.2773 16.7578C34.056 16.9792 33.7891 17.1615 33.4766 17.3047C33.1641 17.4479 32.8385 17.513 32.5 17.5C32.1484 17.5 31.8229 17.4349 31.5234 17.3047C31.224 17.1745 30.9635 16.9987 30.7422 16.7773C30.5208 16.556 30.3385 16.2891 30.1953 15.9766C30.0521 15.6641 29.987 15.3385 30 15C30 14.6484 30.0651 14.3229 30.1953 14.0234C30.3255 13.724 30.5013 13.4635 30.7227 13.2422C30.944 13.0208 31.2109 12.8385 31.5234 12.6953C31.8359 12.5521 32.1615 12.487 32.5 12.5ZM27.5 7.5C27.8516 7.5 28.1771 7.5651 28.4766 7.69531C28.776 7.82552 29.0365 8.0013 29.2578 8.22266C29.4792 8.44401 29.6615 8.71094 29.8047 9.02344C29.9479 9.33594 30.013 9.66146 30 10C30 10.3516 29.9349 10.6771 29.8047 10.9766C29.6745 11.276 29.4987 11.5365 29.2773 11.7578C29.056 11.9792 28.7891 12.1615 28.4766 12.3047C28.1641 12.4479 27.8385 12.513 27.5 12.5C27.1484 12.5 26.8229 12.4349 26.5234 12.3047C26.224 12.1745 25.9635 11.9987 25.7422 11.7773C25.5208 11.556 25.3385 11.2891 25.1953 10.9766C25.0521 10.6641 24.987 10.3385 25 10C25 9.64844 25.0651 9.32292 25.1953 9.02344C25.3255 8.72396 25.5013 8.46354 25.7227 8.24219C25.944 8.02083 26.2109 7.83854 26.5234 7.69531C26.8359 7.55208 27.1615 7.48698 27.5 7.5Z" fill="#F2EDED"/>
</svg>
