<svg width="24" height="25" viewBox="0 0 24 25" fill="none" xmlns="http://www.w3.org/2000/svg">
<path d="M8.02903 7.89021L11.3048 0.967188C11.3677 0.827917 11.466 0.710288 11.5886 0.627692C11.7111 0.545096 11.8529 0.500853 11.9978 0.5C12.2723 0.5 12.5468 0.655196 12.6952 0.967188L15.971 7.89021L23.3176 9.00378C23.5007 9.03449 23.6683 9.13164 23.7921 9.27883C23.9159 9.42602 23.9883 9.61425 23.9971 9.81176C24.0075 9.94326 23.99 10.0756 23.9459 10.1989C23.9017 10.3221 23.8321 10.4332 23.7421 10.5237L18.4579 15.8932L19.7028 23.461C19.8198 24.1698 19.1628 24.725 18.5839 24.4082L11.9978 20.7987L5.41469 24.4082C5.34583 24.4463 5.27202 24.4733 5.1957 24.4882C4.68273 24.5842 4.19376 24.0818 4.29575 23.461L5.54068 15.8932L0.258001 10.5237C0.175874 10.4409 0.110595 10.3409 0.0662152 10.2299C0.0218357 10.119 -0.000696853 9.99956 1.64196e-05 9.87896C9.44341e-05 9.70846 0.0442058 9.54128 0.127509 9.39577C0.186603 9.29029 0.267148 9.2003 0.363201 9.13246C0.459254 9.06461 0.568362 9.02064 0.682475 9.00378L8.02903 7.89021ZM11.9978 18.9427C12.1189 18.9422 12.2383 18.9729 12.3458 19.0323L17.8744 22.0627L16.8335 15.7316C16.8089 15.586 16.8182 15.4362 16.8606 15.2953C16.903 15.1544 16.9771 15.0268 17.0765 14.9236L21.4367 10.4917L15.3591 9.57017C15.2332 9.5499 15.1139 9.49739 15.0112 9.41714C14.9085 9.33688 14.8256 9.23128 14.7696 9.10938L11.9993 3.25673L11.9978 3.26153V18.9411V18.9427Z" fill="#E2DC3A"/>
</svg>
