<svg width="24" height="24" viewBox="0 0 24 24" fill="none" xmlns="http://www.w3.org/2000/svg">
<path d="M6.53959 1.09939C6.56789 0.978442 6.56713 0.853934 6.53735 0.733243C6.50756 0.612551 6.44936 0.498134 6.3662 0.396772C6.28303 0.29541 6.17659 0.209167 6.05319 0.143156C5.92978 0.0771444 5.79192 0.0327081 5.64779 0.012481C5.50365 -0.00774599 5.35617 -0.00335202 5.21408 0.0254024C5.072 0.0541567 4.9382 0.106686 4.82062 0.179877C4.70304 0.253068 4.60408 0.34543 4.52959 0.451489C4.4551 0.557548 4.40661 0.675144 4.38699 0.797307L0.0206789 22.9006C-0.00762756 23.0216 -0.006866 23.1461 0.0229181 23.2668C0.0527022 23.3874 0.110903 23.5019 0.19407 23.6032C0.277237 23.7046 0.383677 23.7908 0.507081 23.8568C0.630486 23.9229 0.768342 23.9673 0.912478 23.9875C1.05661 24.0077 1.2041 24.0034 1.34618 23.9746C1.48827 23.9458 1.62207 23.8933 1.73965 23.8201C1.85723 23.7469 1.95619 23.6546 2.03068 23.5485C2.10516 23.4425 2.15365 23.3249 2.17327 23.2027L3.63599 15.7981C5.39561 16.0154 7.29714 16.0873 8.79479 16.9732C9.72139 17.535 10.7929 17.9031 11.9211 18.0471C14.03 18.316 15.9162 17.3379 17.999 17.6161L20.8131 17.9734C21.3807 18.0471 21.9701 17.6787 22.0553 17.1998L23.9852 6.26972L23.9939 6.26235C24.0236 6.02175 23.9438 5.78062 23.7707 5.58776C23.5977 5.3949 23.3442 5.26469 23.0617 5.2235L20.2476 4.86616C18.1453 4.60276 16.2546 5.5532 14.1719 5.2898C13.2378 5.17012 12.3493 4.86938 11.5761 4.4112C9.96278 3.45891 8.0416 3.30051 6.1488 3.07579L6.54177 1.09754L6.53959 1.09939ZM5.25152 7.61618L5.97197 3.98387C7.27968 4.13491 8.6638 4.22148 9.87545 4.66354L9.23142 8.28296C7.98702 7.85379 6.58107 7.7709 5.25152 7.61618ZM3.81719 14.8918L4.53763 11.2559C5.89119 11.4143 7.32552 11.4953 8.59394 11.9337L9.24889 8.29401C10.6854 8.79134 11.7792 9.64416 13.3816 9.84309L14.0366 6.19604C15.6477 6.4005 16.9816 5.87002 18.5295 5.76503L17.8745 9.38628C16.3245 9.4968 14.984 10.0494 13.3772 9.84677L12.7529 13.4901C11.1461 13.2875 10.0501 12.431 8.60704 11.9355L7.95209 15.5752C6.65311 15.135 5.19476 15.0576 3.81719 14.8918ZM12.755 13.492C14.3575 13.6946 15.7045 13.1383 17.2545 13.0296L17.8745 9.38628C19.3045 9.27577 20.7672 9.59074 22.171 9.77125L21.5597 13.4109C20.1538 13.2323 18.6867 12.9154 17.2567 13.0296L16.6018 16.6693C15.0539 16.7577 13.6872 17.3324 12.1001 17.1298L12.7529 13.4901L12.755 13.492Z" fill="#F2EDED"/>
</svg>
