<svg width="26" height="26" viewBox="0 0 26 26" fill="none" xmlns="http://www.w3.org/2000/svg">
<path d="M6.90197 19.2568L1.80784 17.7949C1.72187 17.7698 1.63172 17.7648 1.54371 17.7802C1.45569 17.7956 1.37193 17.831 1.29826 17.884C1.2246 17.9371 1.16282 18.0064 1.11722 18.0872C1.07163 18.168 1.04334 18.2583 1.03431 18.3518C0.881692 20.0705 1.03554 24.2079 5.90075 24.9295C11.4761 25.7567 12.8829 19.1142 12.8829 15.0948C16.1875 13.085 22.3518 11.0468 24.4594 16.5463C26.2988 21.3457 22.9745 23.5557 21.4853 24.276C21.4039 24.3146 21.3154 24.3339 21.2261 24.3327C21.1368 24.3315 21.0489 24.3098 20.9684 24.269C20.8879 24.2283 20.8169 24.1695 20.7602 24.0968C20.7035 24.0241 20.6627 23.9392 20.6404 23.8481L19.2952 18.4692" stroke="#F2EDED" stroke-linecap="round" stroke-linejoin="round"/>
<path d="M12.197 7.34119L15.8226 3.36028C15.8842 3.29335 15.9318 3.21235 15.9621 3.12295C15.9925 3.03355 16.0048 2.9379 15.9983 2.84267C15.9918 2.74745 15.9666 2.65494 15.9244 2.57162C15.8822 2.4883 15.8241 2.41617 15.7542 2.36027C14.4613 1.34577 11.097 -0.613397 8.17012 3.53024C4.8165 8.27796 9.41776 12.9578 12.6142 15" stroke="#F2EDED" stroke-linecap="round" stroke-linejoin="round"/>
</svg>
