<svg width="24" height="24" viewBox="0 0 24 24" fill="none" xmlns="http://www.w3.org/2000/svg">
<path d="M15 1.28999V22.71L5.737 17.5H1V6.49999H5.737L15 1.28999ZM4.999 8.49999H3V15.5H4.999V8.49999ZM6.999 15.915L13 19.29V4.70999L6.999 8.08399V15.914V15.915ZM20.979 6.98199L21.582 7.77999C22.4998 8.99557 22.9961 10.4773 22.9956 12.0005C22.995 13.5237 22.4977 15.0051 21.579 16.22L20.976 17.018L19.381 15.812L19.984 15.014C20.6405 14.146 20.9959 13.0876 20.9963 11.9993C20.9967 10.9111 20.6419 9.85237 19.986 8.98399L19.383 8.18699L20.979 6.98199ZM18.186 9.08999L18.789 9.88799C19.248 10.4957 19.4962 11.2366 19.496 11.9982C19.4958 12.7597 19.2473 13.5005 18.788 14.108L18.184 14.906L16.59 13.7L17.193 12.903C17.39 12.6427 17.4967 12.3251 17.4969 11.9987C17.4971 11.6722 17.3907 11.3546 17.194 11.094L16.591 10.296L18.187 9.09099L18.186 9.08999Z" fill="#F2EDED"/>
</svg>
